{"title":"Beethoven's Christmas Adventure 2011 DVDrip English Klam","uid":6815352,"size":1532104610,"categoryP":"video","categoryS":"movies","magnet":"?xt=urn:btih:96bbc9986d217cbf51f3c3a9951e1192e7aa056c&amp;dn=Beethoven%5C%27s+Christmas+Adventure+2011+DVDrip+English+Klam&amp;tr=udp%3A%2F%2Ftracker.openbittorrent.com%3A80&amp;tr=udp%3A%2F%2Fopen.demonii.com%3A1337&amp;tr=udp%3A%2F%2Ftracker.coppersurfer.tk%3A6969&amp;tr=udp%3A%2F%2Fexodus.desync.com%3A6969","seeders":1,"leechers":0,"uploader":"Klambake","files":-1,"time":1321184159,"description":"With the voices of John Cleese, Tom Arnold and Kyle Massey\n\nNadat de elf Henry de Noordpool ontvlucht met de slee van de Kerstman en de magische tas met speelgoed, stort hij met de kostbare lading neer in een boom ergens in een buitenwijk. Wanneer de zak met speelgoed in verkeerde handen valt is het aan de heldhaftige Beethoven en zijn tienervriend Mason om Henry te redden, het speelgoed van de Kerstman op te halen en Kerstmis voor alle kinderen te redden.\n\nA Christmas elf accidentally takes off in Santa's sleigh, crash lands in a small town, and loses the magic toy bag. Beethoven must rescue the elf, recover the bag from greedy crooks, and return the sleigh to Santa in time to save Christmas. \n\n------------------ Dutch Friends ------------------\nYou can find my Friends at: http://www.Film-Test.nl \n------ They got my dutch subs ----- and more ------\n\nGeneral:\n\nComplete name                    : Beethoven's\\Christmas Adventure.avi\nFormat                           : AVI\nFormat/Info                      : Audio Video Interleave\nFile size                        : 1.43 GiB\nDuration                         : 1h 25mn\nOverall bit rate                 : 2 379 Kbps\n\nVideo:\n\nFormat                           : MPEG-4 Visual\nFormat profile                   : Simple@L3\nFormat settings, BVOP            : No\nFormat settings, QPel            : No\nFormat settings, GMC             : No warppoints\nFormat settings, Matrix          : Default (H.263)\nCodec ID                         : XVID\nCodec ID/Hint                    : XviD\nDuration                         : 1h 25mn\nBit rate                         : 1 984 Kbps\nWidth                            : 704 pixels\nHeight                           : 396 pixels\nDisplay aspect ratio             : 16:9\nFrame rate                       : 25.000 fps\nColor space                      : YUV\nChroma subsampling               : 4:2:0\nBit depth                        : 8 bits\nScan type                        : Progressive\nCompression mode                 : Lossy\nBits/(Pixel*Frame)               : 0.285\nStream size                      : 1.19 GiB (83%)\nWriting library                  : XviD 1.1.2 (UTC 2006-11-01)\n\nAudio:\n\nFormat                           : AC-3\nFormat/Info                      : Audio Coding 3\nMode extension                   : CM (complete main)\nCodec ID                         : 2000\nDuration                         : 1h 25mn\nBit rate mode                    : Constant\nBit rate                         : 384 Kbps\nChannel(s)                       : 6 channels\nChannel positions                : Front: L C R, Side: L R, LFE\nSampling rate                    : 48.0 KHz\nBit depth                        : 16 bits\nCompression mode                 : Lossy\nStream size                      : 236 MiB (16%)\nAlignment                        : Aligned on interleaves\nInterleave, duration             : 32 ms (0.80 video frame)\nInterleave, preload duration     : 896 ms\n\n","torrent":{"xt":"urn:btih:96bbc9986d217cbf51f3c3a9951e1192e7aa056c","amp;dn":"Beethoven%5C%27s+Christmas+Adventure+2011+DVDrip+English+Klam","amp;tr":["udp%3A%2F%2Ftracker.openbittorrent.com%3A80","udp%3A%2F%2Fopen.demonii.com%3A1337","udp%3A%2F%2Ftracker.coppersurfer.tk%3A6969","udp%3A%2F%2Fexodus.desync.com%3A6969"],"infoHash":"96bbc9986d217cbf51f3c3a9951e1192e7aa056c","infoHashBuffer":{"type":"Buffer","data":[150,187,201,152,109,33,124,191,81,243,195,169,149,30,17,146,231,170,5,108]},"announce":[],"urlList":[]}}